<?xml version="1.0" encoding="UTF-8"?><svg id="Ebene_1" xmlns="http://www.w3.org/2000/svg" viewBox="0 0 283.46 61.83"><defs><style>.cls-1{fill:#1d1d1b;}</style></defs><path class="cls-1" d="m58.61,42.3c-.65,0-1.29.07-1.91.19l-15.19-26.31c1.51-1.72,2.45-3.94,2.45-6.41,0-5.39-4.37-9.77-9.77-9.77s-9.77,4.37-9.77,9.77c0,2.46.94,4.69,2.45,6.41l-15.19,26.31c-.62-.12-1.26-.19-1.91-.19-5.39,0-9.77,4.37-9.77,9.77s4.37,9.77,9.77,9.77,9.77-4.37,9.77-9.77c0-2.46-.94-4.69-2.45-6.41l15.19-26.31c.62.12,1.26.19,1.91.19s1.29-.07,1.91-.19l15.19,26.31c-1.51,1.72-2.45,3.94-2.45,6.41,0,5.39,4.37,9.77,9.77,9.77s9.77-4.37,9.77-9.77-4.37-9.77-9.77-9.77Z"/><path id="path11450" class="cls-1" d="m93.49,44.23v-26.62h6.78l2.98,14.49c.08.31.17.74.27,1.28s.21,1.11.31,1.71c.1.57.19,1.09.27,1.55h.27c.05-.34.12-.75.19-1.24.1-.52.21-1.06.31-1.63s.19-1.11.27-1.63l2.98-14.53h6.74v26.62h-4.57v-17.01c.03-.52.05-1.01.08-1.47.03-.46.04-.84.04-1.12h-.23c-.03.26-.09.59-.19,1.01-.08.39-.15.81-.23,1.28-.08.44-.17.85-.27,1.24l-3.45,16.08h-3.84l-3.45-16.08c-.05-.26-.12-.59-.19-1.01-.08-.41-.17-.85-.27-1.32-.08-.47-.15-.87-.23-1.2h-.19c.03.36.04.79.04,1.28,0,.47,0,.94,0,1.43.03.49.04.93.04,1.32v15.58h-4.46Z"/><path id="path11452" class="cls-1" d="m116.98,44.23l6.24-26.62h6.2l6.24,26.62h-4.96l-1.32-5.97h-6.32l-1.28,5.97h-4.81Zm6.78-9.96h4.92l-1.63-8.18c-.05-.18-.1-.41-.15-.7-.05-.31-.12-.65-.19-1.01-.05-.36-.12-.72-.19-1.09-.05-.39-.1-.74-.15-1.05h-.23c-.05.39-.13.83-.23,1.32-.08.47-.15.93-.23,1.4-.08.47-.14.84-.19,1.12l-1.71,8.18Z"/><path id="path11454" class="cls-1" d="m137.67,44.23v-26.62h7.67c2.09,0,3.78.46,5.08,1.4,1.29.9,2.22,2.34,2.79,4.3.57,1.94.85,4.46.85,7.56s-.3,5.61-.89,7.6c-.57,1.96-1.51,3.42-2.83,4.38-1.29.93-3,1.4-5.12,1.4h-7.56Zm4.77-4.07h2.33c.75,0,1.4-.12,1.94-.35.57-.23,1.03-.63,1.4-1.2.39-.57.67-1.34.85-2.33.21-.98.31-2.22.31-3.72v-2.87c0-1.5-.1-2.76-.31-3.8-.18-1.03-.45-1.86-.81-2.48s-.83-1.06-1.4-1.32c-.57-.28-1.23-.43-1.98-.43h-2.33v18.49Z"/><path id="path11456" class="cls-1" d="m157.4,44.23v-26.62h14.46v4.07h-9.69v6.94h8.41v4.15h-8.41v7.4h9.88v4.07h-14.65Z"/><path id="path11458" class="cls-1" d="m185.34,44.23l-4.57-26.62h4.84l1.71,13.06c.21,1.52.35,2.71.43,3.57.1.83.17,1.45.19,1.86.05.39.09.67.12.85h.27c0-.13.03-.43.08-.89.08-.49.15-1.06.23-1.71.1-.67.21-1.33.31-1.98.1-.65.19-1.21.27-1.71l2.17-13.06h5.08l1.86,13.06c.1.67.19,1.36.27,2.05s.15,1.4.23,2.09c.1.7.19,1.41.27,2.13h.23c0-.13.03-.43.08-.89.08-.46.15-1.01.23-1.63.1-.65.19-1.29.27-1.94.1-.67.19-1.28.27-1.82l2.02-13.06h4.5l-4.84,26.62h-5.19l-2.02-13.14c-.18-1.14-.34-2.13-.46-2.98-.1-.85-.18-1.55-.23-2.09-.05-.54-.08-.92-.08-1.12h-.23c-.03.23-.1.74-.23,1.51-.1.75-.23,1.56-.39,2.44-.13.85-.25,1.61-.35,2.29l-2.17,13.1h-5.15Z"/><path id="path11460" class="cls-1" d="m209.13,44.23v-26.62h4.77v26.62h-4.77Z"/><path id="path11462" class="cls-1" d="m222.27,44.23v-22.52h-5.81v-4.11h16.35v4.11h-5.77v22.52h-4.77Z"/><path id="path11464" class="cls-1" d="m235.37,44.23v-26.62h4.77v11.04h6.2v-11.04h4.69v26.62h-4.69v-11.47h-6.2v11.47h-4.77Z"/><path id="path11466" class="cls-1" d="m258,44.23l6.24-26.62h6.2l6.24,26.62h-4.96l-1.32-5.97h-6.32l-1.28,5.97h-4.81Zm6.78-9.96h4.92l-1.63-8.18c-.05-.18-.1-.41-.15-.7-.05-.31-.12-.65-.19-1.01-.05-.36-.12-.72-.19-1.09-.05-.39-.1-.74-.15-1.05h-.23c-.05.39-.13.83-.23,1.32-.08.46-.15.93-.23,1.4-.08.47-.14.84-.19,1.12l-1.71,8.18Z"/><path id="path11468" class="cls-1" d="m278.7,44.23v-26.62h4.77v26.62h-4.77Z"/></svg>